<?xml version="1.0" standalone="no"?>
<!DOCTYPE svg PUBLIC "-//W3C//DTD SVG 20010904//EN"
 "http://www.w3.org/TR/2001/REC-SVG-20010904/DTD/svg10.dtd">
<svg version="1.0" xmlns="http://www.w3.org/2000/svg"
 width="72.000000pt" height="72.000000pt" viewBox="0 0 72.000000 72.000000"
 preserveAspectRatio="xMidYMid meet">
<metadata>
Created by potrace 1.15, written by Peter Selinger 2001-2017
</metadata>
<g transform="translate(0.000000,72.000000) scale(0.100000,-0.100000)"
fill="#000000" stroke="none">
<path d="M220 698 c-77 -30 -169 -123 -198 -201 -30 -79 -30 -195 0 -274 29
-80 121 -172 201 -201 79 -30 195 -30 274 0 80 29 172 121 201 201 30 79 30
195 0 274 -29 80 -121 172 -201 201 -78 30 -200 29 -277 0z m272 -35 c65 -30
133 -95 165 -162 37 -75 40 -200 6 -273 -30 -66 -96 -133 -162 -165 -48 -24
-68 -28 -141 -28 -73 0 -93 4 -141 28 -223 109 -253 402 -57 560 85 68 227 85
330 40z"/>
<path d="M265 643 c-211 -76 -272 -336 -115 -493 61 -61 119 -85 210 -85 91 0
149 24 210 85 61 61 85 119 85 210 0 91 -24 149 -85 210 -80 80 -203 109 -305
73z m133 -232 c39 -24 72 -47 72 -51 0 -4 -33 -27 -72 -51 -40 -23 -83 -49
-95 -57 l-23 -14 0 122 0 122 23 -14 c12 -8 55 -34 95 -57z"/>
</g>
</svg>
